<?xml version="1.0" encoding="UTF-8" standalone="no"?>
<svg
   xmlns:dc="http://purl.org/dc/elements/1.1/"
   xmlns:cc="http://creativecommons.org/ns#"
   xmlns:rdf="http://www.w3.org/1999/02/22-rdf-syntax-ns#"
   xmlns:svg="http://www.w3.org/2000/svg"
   xmlns="http://www.w3.org/2000/svg"
   id="svg2277"
   version="1.1"
   viewBox="0 0 5.2916666 5.2916669"
   height="20"
   width="20">
  <defs
     id="defs2271" />
  <rect
     style="opacity:1;fill:#000000;fill-opacity:1;stroke:none;stroke-width:0.26458332"
     id="rect3070"
     width="236.61308"
     height="123.22024"
     x="-78.228294"
     y="-494.98135"
     ry="4.8353662" />
  <g
     id="g919">
    <rect
       ry="2.6458333"
       y="-3.6358915e-07"
       x="1.6511918e-07"
       height="5.2916665"
       width="5.2916665"
       id="rect1017"
       style="opacity:1;fill:#173b8e;fill-opacity:1;stroke:none;stroke-width:0.07378145" />
    <g
       id="g910"
       transform="matrix(0.8390265,0,0,0.8390265,0.42590914,0.42590905)">
      <path
         id="path2990"
         d="m 1.5307484,0.91233363 c -0.3425972,0 -0.61842568,0.27580597 -0.61842568,0.61840337 v 2.2301904 c 0,0.3425975 0.27582848,0.6184055 0.61842568,0.6184055 h 2.2301698 c 0.3425972,0 0.6184267,-0.275808 0.6184267,-0.6184055 V 3.4329458 H 1.780306 V 0.91233363 Z"
         style="opacity:1;fill:#ffffff;fill-opacity:1;stroke:none;stroke-width:0.01093199" />
      <rect
         style="opacity:1;fill:#173b8e;fill-opacity:1;stroke:none;stroke-width:0.00776643"
         id="rect2992"
         width="2.4630678"
         height="2.4630678"
         x="1.4584719"
         y="1.3701365"
         ry="0.24519412" />
      <rect
         ry="0.29998407"
         y="0.9123348"
         x="2.2271993"
         height="2.1521368"
         width="2.1521368"
         id="rect2994"
         style="opacity:1;fill:#ffffff;fill-opacity:1;stroke:none;stroke-width:0.00910473" />
      <rect
         style="opacity:1;fill:#173b8e;fill-opacity:1;stroke:none;stroke-width:0.0053728"
         id="rect3000"
         width="1.2699988"
         height="1.2699988"
         x="2.6682692"
         y="1.3534045"
         ry="0.17702377" />
      <rect
         style="opacity:1;fill:#ffffff;fill-opacity:1;stroke:none;stroke-width:0.00436364"
         id="rect2996"
         width="1.0314592"
         height="1.0314592"
         x="1.8922681"
         y="2.4256709"
         ry="0.51572961" />
    </g>
  </g>
</svg>
